<?xml version="1.0" encoding="UTF-8"?>
<svg width="28px" height="22px" viewBox="0 0 28 22" version="1.1" xmlns="http://www.w3.org/2000/svg" xmlns:xlink="http://www.w3.org/1999/xlink">
    <!-- Generator: Sketch 42 (36781) - http://www.bohemiancoding.com/sketch -->
    <title>linkedin-default</title>
    <desc>Created with Sketch.</desc>
    <defs></defs>
    <g id="Assets" stroke="none" stroke-width="1" fill="none" fill-rule="evenodd" fill-opacity="0.2">
        <g id="linkedin-default" fill="#000000">
            <g transform="translate(3.000000, 0.000000)" id="Fill-1">
                <path d="M18.7470556,18.7469028 L15.4861667,18.7469028 L15.4861667,13.6410694 C15.4861667,12.4235833 15.4638611,10.8574583 13.7904861,10.8574583 C12.0926667,10.8574583 11.8320278,12.1837222 11.8320278,13.5530694 L11.8320278,18.7469028 L8.57175,18.7469028 L8.57175,8.24770833 L11.7014028,8.24770833 L11.7014028,9.68229167 L11.7450972,9.68229167 C12.1808194,8.85698611 13.2452222,7.98676389 14.8327361,7.98676389 C18.1370139,7.98676389 18.7470556,10.1614028 18.7470556,12.9880972 L18.7470556,18.7469028 Z M4.89408333,6.81251389 C3.84816667,6.81251389 3.00177778,5.96475 3.00177778,4.92020833 C3.00177778,3.87658333 3.84816667,3.02881944 4.89408333,3.02881944 C5.93740278,3.02881944 6.78516667,3.87658333 6.78516667,4.92020833 C6.78516667,5.96475 5.93740278,6.81251389 4.89408333,6.81251389 Z M3.26180556,18.7469028 L6.52513889,18.7469028 L6.52513889,8.24770833 L3.26180556,8.24770833 L3.26180556,18.7469028 Z M20.3721528,0 L1.623875,0 C0.727986111,0 0,0.710111111 0,1.58522222 L0,20.4126389 C0,21.2888194 0.727986111,22 1.623875,22 L20.3721528,22 C21.2695694,22 22.0006111,21.2888194 22.0006111,20.4126389 L22.0006111,1.58522222 C22.0006111,0.710111111 21.2695694,0 20.3721528,0 L20.3721528,0 Z"></path>
            </g>
        </g>
    </g>
</svg>