<?xml version="1.0" encoding="UTF-8"?>
<svg width="28px" height="22px" viewBox="0 0 28 22" version="1.1" xmlns="http://www.w3.org/2000/svg" xmlns:xlink="http://www.w3.org/1999/xlink">
    <!-- Generator: Sketch 42 (36781) - http://www.bohemiancoding.com/sketch -->
    <title>medium-default</title>
    <desc>Created with Sketch.</desc>
    <defs></defs>
    <g id="Assets" stroke="none" stroke-width="1" fill="none" fill-rule="evenodd" opacity="0.5">
        <g id="medium-default">
            <g transform="translate(1.000000, 0.000000)">
                <path d="M17.9143556,0.261555556 C17.5247111,0.0667333333 17.2059556,0.263755556 17.2059556,0.699355556 L17.2059556,18.0277778 L24.3166,21.5832222 C25.0990667,21.9743333 25.7334,21.7005556 25.7334,20.9716222 L25.7334,4.28486667 C25.7334,4.2152 25.6938,4.15115556 25.6314667,4.11986667 L17.9143556,0.261555556" id="Fill-1" fill="#CCCDC9"></path>
                <path d="M8.67875556,13.7641778 L16.7908889,0.581777778 C17.0192,0.210711111 17.5247111,0.0667333333 17.9143556,0.261555556 L25.6402667,4.12426667 C25.6903778,4.14944444 25.7082222,4.21202222 25.6788889,4.25968889 L17.2059556,18.0277778 L8.67875556,13.7641778" id="Fill-2" fill="#9EA1A0"></path>
                <path d="M1.33197778,0.497688889 C0.682488889,0.172822222 0.462488889,0.413111111 0.843088889,1.03155556 L8.67875556,13.7641778 L17.2059556,18.0277778 L8.69708889,4.20077778 C8.68511111,4.18122222 8.66775556,4.16557778 8.64722222,4.15531111 L1.33197778,0.497688889" id="Fill-3" fill="#797B79"></path>
                <path d="M8.67875556,20.9716222 C8.67875556,21.6976222 8.14733333,22.0259111 7.49808889,21.7012889 L0.859711111,18.3819778 C0.470066667,18.1871556 0.151311111,17.6713778 0.151311111,17.2357778 L0.151311111,0.963355556 C0.151311111,0.382555556 0.5764,0.119777778 1.09584444,0.379622222 L8.6328,4.14797778 C8.66091111,4.16215556 8.67875556,4.19075556 8.67875556,4.22204444 L8.67875556,20.9716222" id="Fill-4" fill="#515251"></path>
            </g>
        </g>
    </g>
</svg>