<?xml version="1.0" encoding="UTF-8"?>
<svg width="28px" height="22px" viewBox="0 0 28 22" version="1.1" xmlns="http://www.w3.org/2000/svg" xmlns:xlink="http://www.w3.org/1999/xlink">
    <!-- Generator: Sketch 42 (36781) - http://www.bohemiancoding.com/sketch -->
    <title>medium-active</title>
    <desc>Created with Sketch.</desc>
    <defs></defs>
    <g id="Assets" stroke="none" stroke-width="1" fill="none" fill-rule="evenodd">
        <g id="medium-active">
            <g transform="translate(1.000000, 0.000000)">
                <path d="M18.0197303,0.0760382863 C17.6257079,-0.12097295 17.3033708,0.0782630054 17.3033708,0.518757387 L17.3033708,18.041881 L24.4939101,21.6372742 C25.2851685,22.0327799 25.9266292,21.7559259 25.9266292,21.0188023 L25.9266292,4.14455514 C25.9266292,4.0741057 25.8865843,4.00934166 25.8235506,3.97770121 L18.0197303,0.0760382863" id="Fill-1" fill="#32FC8D"></path>
                <path d="M8.65168539,13.7421998 L16.8549663,0.411682939 C17.0858427,0.0364469835 17.5970337,-0.109148522 17.9910562,0.0878627139 L25.8037753,3.99397507 C25.8544494,4.01943575 25.8724944,4.08271665 25.8428315,4.13091889 L17.2746966,18.0537054 L8.65168539,13.7421998" id="Fill-2" fill="#0BE370"></path>
                <path d="M1.17760053,0.146474483 C0.520814016,-0.182042371 0.298342106,0.0609463927 0.68321851,0.686339651 L8.60692638,13.562025 L17.2299376,17.8735307 L8.6254657,3.89117111 C8.61335334,3.87139583 8.59580278,3.85557561 8.57503873,3.84519358 L1.17760053,0.146474483" id="Fill-3" fill="#14C767"></path>
                <path d="M8.62325843,20.9247904 C8.62325843,21.6589477 8.08586517,21.9909253 7.42932584,21.6626556 L0.716359551,18.3060489 C0.322337079,18.1090376 0,17.5874646 0,17.1469702 L0,0.691711791 C0,0.104385948 0.429865169,-0.161344389 0.955146067,0.101419656 L8.57678652,3.91211629 C8.60521348,3.92645336 8.62325843,3.95537471 8.62325843,3.98701516 L8.62325843,20.9247904" id="Fill-4" fill="#00AB6C"></path>
            </g>
        </g>
    </g>
</svg>