<?xml version="1.0" encoding="UTF-8"?>
<svg width="28px" height="22px" viewBox="0 0 28 22" version="1.1" xmlns="http://www.w3.org/2000/svg" xmlns:xlink="http://www.w3.org/1999/xlink">
    <!-- Generator: Sketch 42 (36781) - http://www.bohemiancoding.com/sketch -->
    <title>product-hunt-active</title>
    <desc>Created with Sketch.</desc>
    <defs></defs>
    <g id="Assets" stroke="none" stroke-width="1" fill="none" fill-rule="evenodd">
        <g id="product-hunt-active">
            <g transform="translate(3.000000, 0.000000)">
                <path d="M22,11 C22,17.0751167 17.0751167,22 11,22 C4.92488333,22 0,17.0751167 0,11 C0,4.92488333 4.92488333,0 11,0 C17.0751167,0 22,4.92488333 22,11" id="Fill-1" fill="#DA552F"></path>
                <path d="M12.2434783,11.4782609 L12.2434783,11.4783565 L8.99130435,11.4783565 L8.99130435,8.03487826 L12.2434783,8.03487826 L12.2434783,8.03478261 C13.1943565,8.03478261 13.9652174,8.80564348 13.9652174,9.75652174 C13.9652174,10.7074 13.1943565,11.4782609 12.2434783,11.4782609 M12.2434783,5.73913043 L12.2434783,5.73922609 L6.69565217,5.73913043 L6.69565217,17.2173913 L8.99130435,17.2173913 L8.99130435,13.7740087 L12.2434783,13.7740087 L12.2434783,13.773913 C14.4622261,13.773913 16.2608696,11.9752696 16.2608696,9.75652174 C16.2608696,7.53777391 14.4622261,5.73913043 12.2434783,5.73913043" id="Fill-3" fill="#FFFFFF"></path>
            </g>
        </g>
    </g>
</svg>