<?xml version="1.0" encoding="utf-8"?>
<!-- Generator: Adobe Illustrator 18.1.1, SVG Export Plug-In . SVG Version: 6.00 Build 0)  -->
<!DOCTYPE svg PUBLIC "-//W3C//DTD SVG 1.1//EN" "http://www.w3.org/Graphics/SVG/1.1/DTD/svg11.dtd">
<svg version="1.1" id="Layer_1" xmlns="http://www.w3.org/2000/svg" xmlns:xlink="http://www.w3.org/1999/xlink" x="0px" y="0px"
	 viewBox="0 0 612 792" enable-background="new 0 0 612 792" xml:space="preserve">
<path fill="#FFFFFF" d="M306,90C137,90,0,227,0,396s137,306,306,306s306-137,306-306S475,90,306,90z M221.8,535h-58.6V346.3h58.6
	V535z M190,322c-21.7,0-35.7-14-35.7-33.1s14-33.2,35.7-33.2c21.7,0,35.7,14,35.7,33.2S212.9,322,190,322z M457.7,535h-67.6v-98.2
	c0-25.5-10.2-43.3-33.2-43.3c-17.8,0-26.8,11.5-31.9,23c-1.3,3.8-1.3,10.2-1.3,15.3v102h-66.3c0,0,1.3-173.4,0-188.7h66.3v29.3
	c3.8-12.8,25.5-31.9,58.6-31.9c42.1,0,75.2,26.8,75.2,85.4V535z"/>
</svg>
