<?xml version="1.0" encoding="utf-8"?>
<!-- Generator: Adobe Illustrator 18.1.1, SVG Export Plug-In . SVG Version: 6.00 Build 0)  -->
<!DOCTYPE svg PUBLIC "-//W3C//DTD SVG 1.1//EN" "http://www.w3.org/Graphics/SVG/1.1/DTD/svg11.dtd">
<svg version="1.1" id="Layer_1" xmlns="http://www.w3.org/2000/svg" xmlns:xlink="http://www.w3.org/1999/xlink" x="0px" y="0px"
	 viewBox="0 0 612 792" enable-background="new 0 0 612 792" xml:space="preserve">
<path fill="#FFFFFF" d="M306,90C137,90,0,227,0,396s137,306,306,306s306-137,306-306S475,90,306,90z M433.5,327.1c0,2.5,0,6.4,0,8.9
	c0,95.6-67.6,205.3-191.2,205.3c-38.2,0-74-12.8-103.3-33.1c6.4,1.3,11.5,1.3,16.6,1.3c30.6,0,59.9-11.5,82.9-30.6
	c-29.3,0-53.5-20.4-62.5-49.7c3.8,1.3,8.9,1.3,12.8,1.3c6.4,0,12.8-1.3,17.8-2.6c-30.6-7.6-53.5-37-53.5-71.4v-1.3
	c8.9,5.1,19.1,8.9,30.6,8.9c-17.8-12.7-29.3-34.4-29.3-59.9c0-14,2.6-26.8,8.9-37c33.1,43.3,82.9,72.7,139,75.2
	c-1.3-5.1-1.3-11.5-1.3-16.6c0-40.8,30.6-72.7,67.6-72.7c19.1,0,35.7,8.9,48.5,23c16.6-3.8,30.6-10.2,43.3-17.8
	c-5.1,16.6-15.3,30.6-29.3,39.5c12.8-1.3,26.8-5.1,38.2-11.5C460.3,301.7,448.8,314.4,433.5,327.1z"/>
</svg>
