<?xml version="1.0" encoding="UTF-8"?>
<svg width="28px" height="22px" viewBox="0 0 28 22" version="1.1" xmlns="http://www.w3.org/2000/svg" xmlns:xlink="http://www.w3.org/1999/xlink">
    <!-- Generator: Sketch 42 (36781) - http://www.bohemiancoding.com/sketch -->
    <title>angel-list-active</title>
    <desc>Created with Sketch.</desc>
    <defs>
        <polygon id="path-1" points="0.00458333333 21.9954167 15.2964931 21.9954167 15.2964931 0.0359791667 0.00458333333 0.0359791667"></polygon>
    </defs>
    <g id="Assets" stroke="none" stroke-width="1" fill="none" fill-rule="evenodd">
        <g id="angel-list-active">
            <g transform="translate(6.000000, 0.000000)">
                <mask id="mask-2" fill="white">
                    <use xlink:href="#path-1"></use>
                </mask>
                <g id="Clip-2"></g>
                <path d="M11.7363125,9.14749306 C12.4099097,7.31713889 12.9356181,5.80609028 13.31275,4.61434722 C13.6898819,3.42260417 13.8784861,2.69095139 13.8784861,2.41946528 C13.8784861,2.1278125 13.8156181,1.90154861 13.6898819,1.74059722 C13.5639931,1.579875 13.3905139,1.49928472 13.1694444,1.49928472 C12.887875,1.49928472 12.6011875,1.73311111 12.3096111,2.2006875 C12.0177292,2.66834028 11.6961319,3.4203125 11.3441319,4.45599306 L9.83560417,8.81558333 L11.7363125,9.14749306 Z M9.72995833,13.2054236 C9.29752083,13.1853333 8.88754167,13.1401111 8.50055556,13.0696806 C8.11334028,12.9994792 7.74377083,12.8987222 7.39177083,12.7680208 C7.55249306,13.09 7.69579861,13.4115972 7.8216875,13.7334236 C7.94742361,14.0554792 8.05031944,14.3722639 8.13098611,14.6837778 C8.37229861,14.3821181 8.62629167,14.1082639 8.8928125,13.8616806 C9.15910417,13.61525 9.43815278,13.3965486 9.72995833,13.2054236 Z M8.02534028,8.63461806 L6.39611806,3.92799306 C5.97376389,2.73120833 5.64689583,1.94952083 5.41566667,1.58224306 C5.18405556,1.21511806 4.93288889,1.03163194 4.66132639,1.03163194 C4.4501875,1.03163194 4.279,1.11229861 4.14845139,1.27294444 C4.01767361,1.43389583 3.95236111,1.65007639 3.95236111,1.92163889 C3.95236111,2.38425 4.12813194,3.18885417 4.48036111,4.33529861 C4.83228472,5.48174306 5.36028472,6.98522917 6.06428472,8.84575694 C6.12463194,8.73514583 6.20988194,8.65722917 6.32072222,8.61193056 C6.43133333,8.56670833 6.58220139,8.54409722 6.77325,8.54409722 C6.83359722,8.54409722 6.95429167,8.54929167 7.13533333,8.55914583 C7.31629861,8.56922917 7.61284028,8.59459028 8.02534028,8.63461806 Z M6.54698611,15.9208194 C6.71794444,15.9208194 6.873625,15.8430556 7.01463889,15.6869931 C7.15542361,15.5310833 7.22585417,15.3626458 7.22585417,15.1816042 C7.22585417,14.9907083 7.08751389,14.5457431 6.81098611,13.8465556 C6.53422917,13.1475972 6.18994444,12.4612431 5.77767361,11.7874167 C5.4759375,11.2845486 5.17924306,10.9049722 4.88766667,10.6484583 C4.59578472,10.3920208 4.31940972,10.2637639 4.05793056,10.2637639 C3.84671528,10.2637639 3.61288889,10.3972917 3.35645139,10.6635833 C3.10001389,10.9301042 2.97175694,11.1789792 2.97175694,11.4102847 C2.97175694,11.6516736 3.09749306,12.0137569 3.34888889,12.4964583 C3.60013194,12.9791597 3.93723611,13.4921111 4.35966667,14.0351597 C4.8021875,14.6287014 5.2195,15.0910833 5.61175694,15.4229931 C6.0039375,15.7548264 6.31545139,15.9208194 6.54698611,15.9208194 Z M2.02140278,15.5587361 C2.1621875,15.7299236 2.35835417,15.9811667 2.60975,16.313 C3.27349306,17.2282153 3.88674306,17.6857847 4.4501875,17.6857847 C4.64100694,17.6857847 4.81219444,17.6254375 4.9630625,17.5047431 C5.11385417,17.3840486 5.18932639,17.2583889 5.18932639,17.1276111 C5.18932639,16.9768194 5.08872222,16.7255764 4.88766667,16.3733472 C4.68622917,16.0213472 4.40993056,15.6243542 4.05793056,15.1816042 C3.65566667,14.6687292 3.32108333,14.2941181 3.05479167,14.0577708 C2.78827083,13.8216528 2.57438194,13.70325 2.41365972,13.70325 C2.06143056,13.70325 1.73708333,13.8918542 1.44061806,14.2689861 C1.144,14.6461181 0.995652778,15.0910833 0.995652778,15.6039583 C0.995652778,16.0165347 1.09870139,16.476625 1.304875,16.9843056 C1.51081944,17.4921389 1.8101875,18.0025694 2.20244444,18.5154444 C2.79583333,19.3099653 3.53222222,19.9206944 4.41245139,20.3481667 C5.292375,20.7759444 6.26541667,20.9892222 7.33142361,20.9892222 C9.29255556,20.9892222 10.9343056,20.2576458 12.25675,18.7945694 C13.5790417,17.3312639 14.2404931,15.4984653 14.2404931,13.2959444 C14.2404931,12.6223472 14.19,12.0868611 14.089625,11.6894097 C13.9890972,11.2921111 13.8231806,11.0029792 13.5917986,10.8219375 C13.1792986,10.48025 12.3775208,10.1733194 11.1857014,9.90175694 C9.99403472,9.63027083 8.74943056,9.49445139 7.45211806,9.49445139 C7.09011111,9.49445139 6.83359722,9.55479861 6.68280556,9.67549306 C6.5319375,9.7961875 6.45646528,10.0023611 6.45646528,10.2939375 C6.45646528,10.9780764 6.83863889,11.4731528 7.60298611,11.7798542 C8.36710417,12.0868611 9.60406944,12.2400208 11.3139583,12.2400208 L11.9324792,12.2400208 C12.0732639,12.2400208 12.1863958,12.2928056 12.271875,12.398375 C12.357125,12.5039444 12.4151806,12.662375 12.4453542,12.8735903 C12.2741667,13.0344653 11.9223958,13.2182569 11.3893542,13.4242014 C10.8561597,13.6302986 10.4488542,13.8339514 10.1675139,14.0351597 C9.56404167,14.4778333 9.07881944,15.0031597 8.71177083,15.6115208 C8.34441667,16.2201875 8.16115972,16.7957778 8.16115972,17.3388264 C8.16115972,17.6707361 8.23884722,18.0704792 8.39498611,18.5380556 C8.55081944,19.0057847 8.62873611,19.2948403 8.62873611,19.4055278 L8.62873611,19.5110972 L8.5985625,19.6468403 C8.15588889,19.6166667 7.80663889,19.3579375 7.55020139,18.8699653 C7.29376389,18.3822222 7.16550694,17.7310833 7.16550694,16.9163958 L7.16550694,16.7806528 C7.08484028,16.8510833 7.00707639,16.9013472 6.93168056,16.9315208 C6.85628472,16.9616944 6.77325,16.9768194 6.68280556,16.9768194 C6.59220833,16.9768194 6.50672917,16.9692569 6.42629167,16.9541319 C6.345625,16.9390833 6.25518056,16.9163958 6.15480556,16.8862222 C6.18497917,16.9970625 6.20759028,17.105 6.22263889,17.2105694 C6.23776389,17.3162153 6.24525,17.3991736 6.24525,17.4595208 C6.24525,17.8316111 6.0995,18.1511458 5.80784722,18.4174375 C5.51596528,18.6839583 5.16900694,18.8171806 4.76689583,18.8171806 C4.13340278,18.8171806 3.48975,18.5079583 2.83601389,17.8894375 C2.182125,17.2709167 1.85548611,16.6652292 1.85548611,16.0716875 C1.85548611,15.9610764 1.86809028,15.8629931 1.89322222,15.7774375 C1.918125,15.6921875 1.96105556,15.6190833 2.02140278,15.5587361 Z M12.8224861,9.40393056 C13.7276181,9.57511806 14.3662292,9.9570625 14.7383194,10.5504514 C15.1101806,11.1439931 15.2964931,12.0792986 15.2964931,13.3562917 C15.2964931,15.8906458 14.5346667,17.9648333 13.0110139,19.5790069 C11.4874375,21.1929514 9.53890972,22 7.16550694,22 C6.23020139,22 5.322625,21.8314861 4.442625,21.4946111 C3.56239583,21.1577361 2.80584028,20.6875625 2.17227083,20.0841667 C1.44818056,19.4205764 0.905055556,18.7190972 0.543048611,17.9799583 C0.180965278,17.2407431 0,16.4841875 0,15.7096042 C0,14.8447292 0.186083333,14.1761736 0.558097222,13.70325 C0.930034722,13.2305556 1.51830556,12.9089583 2.32313889,12.7378472 C2.17227083,12.3857708 2.06143056,12.0891528 1.99122917,11.8477639 C1.920875,11.606375 1.88565972,11.4203681 1.88565972,11.2896667 C1.88565972,10.8370625 2.12445139,10.3746042 2.6021875,9.90175694 C3.07969444,9.4290625 3.52993056,9.19271528 3.95236111,9.19271528 C4.13340278,9.19271528 4.32422222,9.22540972 4.52558333,9.29079861 C4.72671528,9.35641667 4.95779167,9.46427778 5.2195,9.61514583 C4.44491667,7.42270833 3.88193056,5.73069444 3.52993056,4.53895139 C3.17770139,3.34720833 3.00200694,2.52503472 3.00200694,2.07250694 C3.00200694,1.44902083 3.16265278,0.953868056 3.48470833,0.586590278 C3.80653472,0.219465278 4.24401389,0.0359791667 4.79706944,0.0359791667 C5.74222917,0.0359791667 6.93924306,2.14790278 8.38742361,6.37182639 C8.63866667,7.09591667 8.82994444,7.65401389 8.96064583,8.04627083 C9.07125694,7.73475694 9.2269375,7.29200694 9.42829861,6.71878472 C10.8764792,2.53511806 12.123375,0.443284722 13.1694444,0.443284722 C13.6823958,0.443284722 14.0919931,0.616763889 14.3989236,0.963722222 C14.705625,1.31068056 14.8590139,1.77604167 14.8590139,2.35911806 C14.8590139,2.80179167 14.6905764,3.61120833 14.353625,4.78782639 C14.0165208,5.96452083 13.5063194,7.50314583 12.8224861,9.40393056 L12.8224861,9.40393056 Z" id="Fill-1" fill="#000000" mask="url(#mask-2)"></path>
            </g>
        </g>
    </g>
</svg>