<?xml version="1.0" encoding="UTF-8"?>
<svg width="28px" height="22px" viewBox="0 0 28 22" version="1.1" xmlns="http://www.w3.org/2000/svg" xmlns:xlink="http://www.w3.org/1999/xlink">
    <!-- Generator: Sketch 42 (36781) - http://www.bohemiancoding.com/sketch -->
    <title>twitter-default</title>
    <desc>Created with Sketch.</desc>
    <defs></defs>
    <g id="Assets" stroke="none" stroke-width="1" fill="none" fill-rule="evenodd" fill-opacity="0.2">
        <g id="twitter-default" fill-rule="nonzero" fill="#000000">
            <g id="Shape">
                <path d="M8.55041317,22 C18.8106864,22 24.4216307,13.5368439 24.4216307,6.19789381 C24.4216307,5.95751031 24.4167132,5.71821686 24.4058836,5.48000438 C25.4950454,4.69605786 26.4416984,3.71775524 27.1883646,2.60408645 C26.1888866,3.04641099 25.1133187,3.34417659 23.9850171,3.47844362 C25.1366749,2.79086669 26.020832,1.70320471 26.4379578,0.406589028 C25.3602003,1.04273372 24.1666658,1.50508794 22.8958553,1.75470962 C21.8779479,0.675195765 20.4287732,0 18.8241344,0 C15.7436803,0 13.2456696,2.4872239 13.2456696,5.55308321 C13.2456696,5.98890378 13.294608,6.41282462 13.3903134,6.81944998 C8.75421362,6.58718736 4.64326173,4.37719068 1.89198306,1.01674508 C1.41292702,1.83749899 1.13669521,2.79089395 1.13669521,3.80818405 C1.13669521,5.7350309 2.12148437,7.4360555 3.61901349,8.43118124 C2.70383653,8.40302886 1.84413038,8.1529003 1.09272001,7.7365644 C1.09189889,7.75986606 1.09189889,7.78258363 1.09189889,7.80748766 C1.09189889,10.4971885 3.01467372,12.7428753 5.56706038,13.2517474 C5.09833212,13.3789746 4.60517117,13.4471936 4.09617184,13.4471936 C3.73729037,13.4471936 3.38764186,13.4120249 3.04779198,13.3470361 C3.75794594,15.5537535 5.81722638,17.1595803 8.25867144,17.2044541 C6.3494906,18.6943722 3.94444826,19.5817645 1.33056931,19.5817645 C0.880872645,19.5817645 0.436622705,19.5562973 0,19.504885 C2.46872428,21.0803721 5.40010057,21.9996485 8.55071425,21.9996485"></path>
            </g>
        </g>
    </g>
</svg>